<?xml version="1.0" encoding="utf-8"?>
<!-- Generator: Adobe Illustrator 21.0.0, SVG Export Plug-In . SVG Version: 6.00 Build 0)  -->
<svg version="1.1" id="FINAL_LOGOS_x5F_black" xmlns="http://www.w3.org/2000/svg" xmlns:xlink="http://www.w3.org/1999/xlink"
	 x="0px" y="0px" viewBox="0 0 708.7 335.4" style="enable-background:new 0 0 708.7 335.4;" xml:space="preserve">
<style type="text/css">
	.st0{fill:#28251F;stroke:#28251F;stroke-width:1.8158;stroke-miterlimit:10;}
	.st1{fill:#FFFFFF;stroke:#FFFFFF;stroke-width:1.8158;stroke-miterlimit:10;}
	.st2{fill:#28251F;stroke:#28251F;stroke-miterlimit:10;}
	.st3{fill:#FFFFFF;stroke:#FFFFFF;stroke-miterlimit:10;}
	.st4{fill:#28251F;}
	.st5{fill:#FFFFFF;}
</style>
<path id="_x3C_ICONZusammengesetzter_Pfad_x3E__5_" class="st5" d="M304.9,217.1c1.4-1.8,5.2-5.6,5.2-5.6c10.3,9,20.7,17.7,34,23.2
	c63.4,26,131.4-2.6,159.2-64.7c0.5-1.3,1.1-2.6,1.6-3.9c2.2-5.2,4-10.6,5.3-15.9c1.8-4.6,3.3-9.2,4.6-14c0.1,4.3,0.1,8.6-0.2,12.9
	c-0.5,9.7-1.7,19.1-3.6,28.4c-2.6,12.6-6.6,24.6-11.7,36.1c-1.5,3.4-3.1,6.7-4.8,10c-3.4,6.4-15.8,22.8-19.9,28.7
	c7.6-0.9,18.3-2.5,30.3-13c-42.5,71.7-131.5,101-205.3,65.4c-5.3-2.6-10.4-5.4-15.3-8.5C280.8,262.7,294.9,230.2,304.9,217.1z
	 M228.8,89.7c-10,20.7-15.4,42.5-16.5,64c14.5-22,35.4-37.9,59-46.5c1.7-0.6,3.4-1.2,5.2-1.8c1-0.3,2-0.6,3-0.9
	c0.8-3.3,1.8-6.5,2.9-9.7c0,0,0,0,0-0.1c7.5-27,25.3-51.3,50.5-66.3c3.9-2.3,8-4.4,12.2-6.2c4.3-1.9,8.7-3.4,13-4.7
	c-1.4,0-2.8,0.1-4.2,0.1c-14.7,0.8-29.2,5.5-43.7,11.8c-3.1,1.3-6,2.8-8.9,4.3c-13.9,7.3-28.3,18.9-38.7,30.1
	c1.6-5.5,5.8-13,13.6-21.8c-14.3,7.4-27.2,17.7-37.6,31.3C238.4,73.4,231.6,83.8,228.8,89.7z M417.6,164.8c0,1.8-0.2,3.5-0.6,5.1
	c0,0.1-0.1,0.3-0.1,0.4c-0.8-0.2-1.8-0.5-2.2-0.6c-2.9-0.8-5.8-1.5-8.9-2c-0.6-0.1-1.3-0.2-1.9-0.3l0,0c-0.9-0.2-1.8-0.3-2.8-0.4
	c-1.1-0.2-2.1-0.3-3.2-0.4c-3.3-0.4-6.6-0.6-9.9-0.7c-1.1,0-2.3,0-3.4,0c-1,0-2,0-3,0.1c-0.9,0-1.8,0.1-2.7,0.1c-0.4,0-0.7,0-1,0.1
	c-2.4,0.2-4.7,0.4-7.1,0.7c-2.7,0.4-5.5,0.9-8.2,1.4c-4.1,0.9-8.1,2-12,3.3c-1.5,0.5-3.1,1.1-4.6,1.7c-6.1,2.3-12,5.3-17.6,8.7
	c-18.2,11-33.1,27.4-42.4,47.2c-3.9,8.3-6.8,17.3-8.5,26.8c-1.9,10.4-3.4,22.1-3.2,33.3c-14-10.4-25.9-23.1-35.3-37.3
	c-0.4-18.8,5.8-36.1,15.6-56.2c9.9-20.5,24.6-36.9,42.2-48.7c-11,3.6-21.3,8.9-30.6,15.7c-22,16.1-32.5,35.9-37.8,64.7
	c-0.2,1.3-0.4,2.5-0.6,3.8c0,0.3-0.1,0.5-0.1,0.8c-7.9-16.8-12.9-34.9-14.8-53.7c1.4-4.2,3.1-8.4,5.1-12.5
	c5.5-11.3,12.7-21.3,21.2-29.6l0.6-0.6c0,0,0.1-0.1,0.1-0.1c2.1-2.1,4.3-4.1,6.6-6c0.6-0.5,1.2-1,1.8-1.4c0.3-0.3,0.6-0.5,0.9-0.7
	c0.9-0.7,1.9-1.4,2.8-2.2c0.1-0.1,0.2-0.2,0.4-0.3c0.2-0.2,0.5-0.4,0.8-0.5c0,0,0,0,0,0c0,0,0,0,0.1,0c0.5-0.4,1.1-0.8,1.6-1.2
	c1.6-1.1,3.1-2.1,4.8-3.1c2.1-1.3,4.3-2.5,6.5-3.7c0.9-0.5,1.9-1,2.8-1.4c1-0.5,1.9-0.9,2.9-1.3c0.2-0.1,0.4-0.2,0.6-0.3
	c0.2-0.1,0.3-0.1,0.5-0.2c0.5-0.2,1-0.4,1.5-0.7c0.1,0,0.1,0,0.1,0c0.7-0.3,1.4-0.6,2.2-0.9c0.8-0.3,1.6-0.7,2.5-0.9
	c0.8-0.4,1.6-0.6,2.5-0.9c6.6-2.3,13.5-4,20.5-4.9c1.3-0.2,2.6-0.4,3.8-0.5c4.4-0.4,8.3-0.9,12.1-1.2c-4.3-6.4-7.1-14-7.9-22.1
	c1.9,4.3,4.6,6.1,6.5,7.3c-0.4-2.1-1.7-8-1.8-10.2c0-1.1-0.1-2.2,0-3.3c0-3.7,0.4-7.5,1.3-11.2c0.6-2.7,1.5-5.4,2.5-8.1
	c0.5-1.2,1-2.3,1.5-3.5c0,0.1,0,0.1,0,0.2c-1.3,4.5-2.1,9.2-2.1,14.1c0,26.8,27.4,41.6,48.4,48.8c8,2.7,15.9,8.1,22.2,13
	c7.5,6,8.1,10.9,8.1,10.9c2.6,2.7,11.6,8.2,11.6,8.2C414.3,152.9,417.6,156,417.6,164.8z M229.3,147.5c-0.3,0.4-0.6,0.8-0.9,1.2
	c-0.1,0.1-0.2,0.3-0.3,0.4c0.3-0.4,0.5-0.7,0.8-1.1C229,147.9,229.1,147.7,229.3,147.5z M230.6,145.8c-0.3,0.4-0.6,0.8-0.9,1.2
	c0.1-0.1,0.2-0.2,0.3-0.3C230.2,146.3,230.4,146.1,230.6,145.8z M233.6,142.2c-0.2,0.2-0.4,0.4-0.5,0.6c-0.3,0.4-0.5,0.7-0.8,1
	C232.7,143.1,233.1,142.7,233.6,142.2z M372.9,130.1c-13.2,0.3-28,6.4-28,6.4l-0.1,0.3l37.2,1C381.9,137.8,376.9,131.2,372.9,130.1z
	"/>
</svg>
