<?xml version="1.0" encoding="utf-8"?>
<!-- Generator: Adobe Illustrator 21.0.0, SVG Export Plug-In . SVG Version: 6.00 Build 0)  -->
<svg version="1.1" id="FINAL_LOGOS_x5F_black" xmlns="http://www.w3.org/2000/svg" xmlns:xlink="http://www.w3.org/1999/xlink"
	 x="0px" y="0px" viewBox="0 0 708.7 335.4" style="enable-background:new 0 0 708.7 335.4;" xml:space="preserve">
<style type="text/css">
	.st0{fill:#28251F;stroke:#28251F;stroke-width:1.8158;stroke-miterlimit:10;}
	.st1{fill:#FFFFFF;stroke:#FFFFFF;stroke-width:1.8158;stroke-miterlimit:10;}
	.st2{fill:#28251F;stroke:#28251F;stroke-miterlimit:10;}
	.st3{fill:#FFFFFF;stroke:#FFFFFF;stroke-miterlimit:10;}
	.st4{fill:#28251F;}
	.st5{fill:#FFFFFF;}
</style>
<g>
	<path class="st3" d="M184.2,272.5h-20.4l-3.9,11.7h-13.3l18.4-50.7h18.5l18.5,50.7H188L184.2,272.5z M181.1,263.4l-2.3-7.1
		c-2.3-7-3.6-10.7-4.6-15.2h-0.3c-1,4.3-2.3,8.5-4.5,14.9l-2.5,7.4H181.1z M234.2,233.5c13.4,0,21.1,4.3,21.1,14.9
		c0,8.8-5.7,13-12.8,14.1v0.3c3.2,1.3,5.2,3.2,8.1,7.5l9.3,14H244l-10.1-16.5c-1.1-1.8-2.8-2.4-5.5-2.4h-0.9v18.9h-13.1v-50.7H234.2
		z M227.5,256.5h5c7,0,9.3-2.5,9.3-7.2c0-4.6-3.3-6.7-9.1-6.7h-5.2V256.5z M280.2,242.6h-15.1v-9.1h43.4v9.1h-15.1v41.6h-13.3V242.6
		z M320.1,284.2v-50.7h36v9.1h-22.8v11.3h19.6v9.1h-19.6v12.1h23.8v9.1H320.1z M405.6,260.8l11.4-27.4h19.8v50.7h-12.6v-37.6h-0.3
		l-13.5,31.5h-10.9l-13.3-31.5h-0.5v37.6h-12.1v-50.7h20.4l11.5,27.4H405.6z M456.1,233.5h13.3v50.7h-13.3V233.5z M514.2,270.7
		c0-8-28-6.9-28-22.9c0-8.4,8.8-15,21.4-15c10.1,0,16.5,3.9,18.5,6.1l-8.2,8.2c-1.5-1.5-4.9-4.7-11.4-4.7c-4.3,0-6.8,2-6.8,4.6
		c0,8.2,27.9,6.9,27.9,23.1c0,7.6-7.5,15-23,15c-11.7,0-19-4.3-21.1-6.3l7.5-9.1c2.6,2.2,7.9,6.1,15.2,6.1
		C511.7,275.6,514.2,273.3,514.2,270.7z M250.5,313.2h-10l-1.9,5.1h-6.5l9-22.2h9l9,22.2h-6.8L250.5,313.2z M249,309.2l-1.1-3.1
		c-1.1-3.1-1.7-4.7-2.2-6.7h-0.2c-0.5,1.9-1.1,3.7-2.2,6.5l-1.2,3.2H249z M276.1,295.8c5.9,0,8.5,1.9,9.3,2.6l-4.2,3.5
		c-1-0.9-2.4-2-5.5-2c-4,0-6,2.3-6,7.2c0,4.6,2.1,7.4,6.6,7.4c2.8,0,4.4-1.1,5.3-1.9l3.6,3.4c-1.3,1.1-4.3,2.6-9.4,2.6
		c-9.1,0-12.7-4.6-12.7-11.2C263,300.4,267.4,295.8,276.1,295.8z M307.2,313.2h-10l-1.9,5.1h-6.5l9-22.2h9l9,22.2h-6.8L307.2,313.2z
		 M305.7,309.2l-1.1-3.1c-1.1-3.1-1.7-4.7-2.2-6.7h-0.2c-0.5,1.9-1.1,3.7-2.2,6.5l-1.2,3.2H305.7z M322,296.1h9.2
		c9.7,0,14,3.5,14,10.6c0,5.7-3,11.6-14,11.6H322V296.1z M328.5,314.3h2.4c6.1,0,7.8-2.9,7.8-7.2c0-5.4-3.1-7.1-7.8-7.1h-2.3V314.3z
		 M352.8,318.3v-22.2h17.6v4h-11.2v5h9.6v4h-9.6v5.3h11.7v4H352.8z M394.7,308.1l5.6-12h9.7v22.2h-6.2v-16.5h-0.2l-6.6,13.8h-5.3
		l-6.5-13.8h-0.3v16.5h-5.9v-22.2h10l5.6,12H394.7z M432.1,311.2v7.1h-6.5v-7.1l-10-15.1h7.2l6.1,10.2h0.2l6.2-10.2h6.9L432.1,311.2
		z"/>
	<path id="_x3C_ICONZusammengesetzter_Pfad_x3E__4_" class="st5" d="M302.1,148c0.8-1.1,3.1-3.3,3.1-3.3
		c6.1,5.3,12.3,10.5,20.2,13.8c37.7,15.5,78-1.5,94.5-38.4c0.3-0.8,0.7-1.5,1-2.3c1.3-3.1,2.3-6.3,3.2-9.5c1.1-2.7,2-5.5,2.7-8.3
		c0.1,2.6,0,5.1-0.1,7.7c-0.3,5.8-1,11.4-2.1,16.8c-1.6,7.5-3.9,14.6-7,21.4c-0.9,2-1.8,4-2.9,6c-2,3.8-9.4,13.6-11.8,17.1
		c4.5-0.5,10.8-1.5,18-7.7c-25.3,42.5-78.1,60-121.9,38.8c-3.1-1.5-6.2-3.2-9.1-5C287.8,175.1,296.1,155.8,302.1,148z M256.9,72.4
		c-5.9,12.3-9.1,25.2-9.8,38c8.6-13,21-22.5,35-27.6c1-0.4,2-0.7,3.1-1c0.6-0.2,1.2-0.4,1.8-0.5c0.5-2,1-3.9,1.7-5.8c0,0,0,0,0,0
		c4.5-16.1,15-30.5,30-39.4c2.3-1.4,4.7-2.6,7.2-3.7c2.6-1.1,5.2-2,7.7-2.8c-0.8,0-1.7,0-2.5,0.1c-8.7,0.5-17.4,3.2-26,7
		c-1.8,0.8-3.6,1.6-5.3,2.5c-8.2,4.3-16.8,11.2-23,17.9c0.9-3.3,3.5-7.7,8-12.9c-8.5,4.4-16.1,10.5-22.3,18.6
		C262.6,62.7,258.6,68.9,256.9,72.4z M369,117c0,1-0.1,2.1-0.3,3c0,0.1,0,0.2-0.1,0.2c-0.5-0.1-1-0.3-1.3-0.4
		c-1.7-0.5-3.5-0.9-5.3-1.2c-0.4-0.1-0.8-0.1-1.1-0.2l0,0c-0.6-0.1-1.1-0.2-1.6-0.2c-0.6-0.1-1.3-0.2-1.9-0.2
		c-2-0.2-3.9-0.4-5.9-0.4c-0.7,0-1.4,0-2,0c-0.6,0-1.2,0-1.8,0c-0.5,0-1.1,0-1.6,0.1c-0.2,0-0.4,0-0.6,0c-1.4,0.1-2.8,0.2-4.2,0.4
		c-1.6,0.2-3.2,0.5-4.8,0.9c-2.4,0.5-4.8,1.2-7.2,2c-0.9,0.3-1.8,0.6-2.7,1c-3.6,1.4-7.1,3.1-10.4,5.2c-10.8,6.6-19.6,16.2-25.2,28
		c-2.3,4.9-4,10.3-5.1,15.9c-1.1,6.2-2,13.1-1.9,19.8c-8.3-6.2-15.4-13.7-21-22.2c-0.2-11.2,3.5-21.4,9.2-33.4
		c5.9-12.1,14.6-21.9,25-28.9c-6.6,2.1-12.6,5.3-18.2,9.3c-13,9.5-19.3,21.3-22.4,38.4c-0.1,0.8-0.2,1.5-0.4,2.2
		c0,0.2,0,0.3-0.1,0.5c-4.7-10-7.7-20.7-8.8-31.9c0.8-2.5,1.8-5,3-7.4c3.2-6.7,7.5-12.6,12.6-17.6l0.4-0.4c0,0,0,0,0.1-0.1
		c1.3-1.3,2.5-2.4,3.9-3.5c0.3-0.3,0.7-0.6,1-0.9c0.2-0.2,0.3-0.3,0.5-0.4c0.6-0.4,1.1-0.9,1.7-1.3c0.1-0.1,0.1-0.1,0.2-0.2
		c0.1-0.1,0.3-0.2,0.5-0.3c0,0,0,0,0,0c0,0,0,0,0,0c0.3-0.2,0.6-0.5,1-0.7c0.9-0.6,1.9-1.3,2.8-1.8c1.3-0.8,2.6-1.5,3.9-2.2
		c0.5-0.3,1.1-0.6,1.7-0.8c0.6-0.3,1.1-0.6,1.7-0.8c0.1-0.1,0.2-0.1,0.4-0.2c0.1,0,0.2-0.1,0.3-0.1c0.3-0.1,0.6-0.3,0.9-0.4
		c0,0,0,0,0,0c0.4-0.2,0.9-0.4,1.3-0.6c0.5-0.2,1-0.4,1.5-0.6c0.5-0.2,1-0.4,1.5-0.6c3.9-1.4,8-2.3,12.2-2.9
		c0.7-0.1,1.5-0.2,2.3-0.3c2.6-0.3,4.9-0.5,7.2-0.7c-2.5-3.8-4.2-8.3-4.7-13.1c1.1,2.6,2.7,3.6,3.9,4.3c-0.2-1.2-1-4.8-1.1-6
		c0-0.6,0-1.3,0-1.9c0-2.2,0.3-4.4,0.8-6.6c0.4-1.6,0.9-3.2,1.5-4.8c0.3-0.7,0.6-1.4,0.9-2.1c0,0,0,0.1,0,0.1
		c-0.8,2.7-1.2,5.5-1.2,8.4c0,15.9,16.3,24.7,28.7,29c4.8,1.6,9.5,4.8,13.2,7.7c4.4,3.6,4.8,6.5,4.8,6.5c1.5,1.6,6.9,4.9,6.9,4.9
		C367,109.9,369,111.8,369,117z M257.2,106.7c-0.2,0.2-0.4,0.5-0.6,0.7c-0.1,0.1-0.1,0.2-0.2,0.2c0.2-0.2,0.3-0.4,0.5-0.6
		C257,106.9,257.1,106.8,257.2,106.7z M258,105.7c-0.2,0.2-0.4,0.5-0.5,0.7c0.1-0.1,0.1-0.1,0.2-0.2
		C257.7,106,257.8,105.8,258,105.7z M259.7,103.5c-0.1,0.1-0.2,0.2-0.3,0.3c-0.2,0.2-0.3,0.4-0.5,0.6
		C259.2,104.1,259.5,103.8,259.7,103.5z M342.4,96.3c-7.8,0.2-16.6,3.8-16.6,3.8l-0.1,0.2l22.1,0.6C347.8,101,344.8,97,342.4,96.3z"
		/>
</g>
</svg>
