<?xml version="1.0" encoding="utf-8"?>
<!-- Generator: Adobe Illustrator 21.0.0, SVG Export Plug-In . SVG Version: 6.00 Build 0)  -->
<svg version="1.1" id="FINAL_LOGOS_x5F_black" xmlns="http://www.w3.org/2000/svg" xmlns:xlink="http://www.w3.org/1999/xlink"
	 x="0px" y="0px" viewBox="0 0 708.7 335.4" style="enable-background:new 0 0 708.7 335.4;" xml:space="preserve">
<style type="text/css">
	.st0{fill:#28251F;stroke:#28251F;stroke-width:1.8158;stroke-miterlimit:10;}
	.st1{fill:#FFFFFF;stroke:#FFFFFF;stroke-width:1.8158;stroke-miterlimit:10;}
	.st2{fill:#28251F;stroke:#28251F;stroke-miterlimit:10;}
	.st3{fill:#FFFFFF;stroke:#FFFFFF;stroke-miterlimit:10;}
	.st4{fill:#28251F;}
	.st5{fill:#FFFFFF;}
</style>
<g>
	<path id="_x3C_MAINLOGOZusammengesetzter_Pfad_x3E_" class="st2" d="M259.1,96.6h-26l-5,14.9h-17l23.4-64.7h23.5l23.5,64.7H264
		L259.1,96.6z M255.3,85l-3-9c-3-9-4.5-13.7-5.9-19.4H246c-1.3,5.5-3,10.8-5.7,19L237,85H255.3z M322.9,46.8
		c17.1,0,26.9,5.4,26.9,19c0,11.3-7.3,16.5-16.4,18v0.4c4.1,1.7,6.6,4.1,10.3,9.5l11.8,17.8h-20.1l-12.8-21.1c-1.4-2.3-3.5-3-7.1-3
		h-1.1v24.1h-16.7V46.8H322.9z M314.4,76.2h6.4c9,0,11.8-3.2,11.8-9.2c0-5.9-4.2-8.6-11.6-8.6h-6.6V76.2z M381.6,58.4h-19.2V46.8
		h55.4v11.6h-19.2v53.1h-16.9V58.4z M432.5,111.5V46.8h45.9v11.6h-29.1v14.4h25v11.6h-25v15.4h30.4v11.6H432.5z M541.6,81.7
		l14.5-34.9h25.3v64.7h-16.1V63.6h-0.4l-17.2,40.2h-13.9l-17-40.2H516v47.9h-15.5V46.8h26l14.7,34.9H541.6z M605.9,46.8h16.9v64.7
		h-16.9V46.8z M680.1,94.2c0-10.2-35.7-8.9-35.7-29.3c0-10.7,11.3-19.1,27.3-19.1c12.9,0,21,5,23.5,7.8l-10.5,10.4
		c-1.9-1.9-6.3-6-14.5-6c-5.5,0-8.6,2.6-8.6,5.8c0,10.4,35.6,8.9,35.6,29.5c0,9.7-9.6,19.1-29.3,19.1c-14.9,0-24.2-5.5-26.9-8
		l9.6-11.6c3.3,2.8,10.1,7.8,19.5,7.8C676.9,100.5,680.1,97.7,680.1,94.2z M405.2,154.1h-15.3l-2.9,7.9h-10l13.8-34.2h13.9
		l13.9,34.2h-10.4L405.2,154.1z M402.9,147.9l-1.8-4.8c-1.8-4.7-2.7-7.2-3.5-10.2h-0.3c-0.8,2.9-1.8,5.7-3.4,10.1l-1.9,5H402.9z
		 M444.6,127.3c9,0,13,3,14.3,4l-6.5,5.4c-1.5-1.4-3.7-3.1-8.5-3.1c-6.1,0-9.3,3.5-9.3,11.1c0,7.1,3.3,11.3,10.1,11.3
		c4.2,0,6.8-1.7,8.2-2.9l5.5,5.3c-2,1.8-6.6,4-14.5,4c-14,0-19.5-7-19.5-17.2C424.4,134.4,431.2,127.3,444.6,127.3z M492.4,154.1
		h-15.3l-2.9,7.9h-10l13.8-34.2h13.9l13.9,34.2h-10.4L492.4,154.1z M490.1,147.9l-1.8-4.8c-1.8-4.7-2.7-7.2-3.5-10.2h-0.3
		c-0.8,2.9-1.8,5.7-3.4,10.1l-1.9,5H490.1z M515.2,127.7h14.2c14.9,0,21.6,5.4,21.6,16.3c0,8.7-4.6,17.9-21.5,17.9h-14.3V127.7z
		 M525.1,155.8h3.7c9.3,0,12-4.4,12-11c0-8.2-4.8-10.9-12.1-10.9h-3.6V155.8z M562.5,161.9v-34.2h27.1v6.1h-17.2v7.6h14.7v6.2h-14.7
		v8.2h17.9v6.1H562.5z M626.9,146.2l8.5-18.4h14.9v34.2h-9.5v-25.3h-0.3l-10.2,21.2h-8.2l-10-21.2h-0.4v25.3h-9.1v-34.2h15.3
		l8.7,18.4H626.9z M684.5,150.9v11h-10v-11l-15.4-23.2h11.1l9.3,15.8h0.3l9.5-15.8h10.6L684.5,150.9z"/>
	<path id="_x3C_ICONZusammengesetzter_Pfad_x3E__2_" class="st4" d="M94.3,221.3c1.2-1.6,4.7-5.1,4.7-5.1c9.3,8.1,18.8,16.1,30.9,21
		c57.5,23.6,119.1-2.3,144.4-58.6c0.5-1.2,1-2.3,1.5-3.5c2-4.7,3.6-9.6,4.8-14.4c1.6-4.1,3-8.4,4.2-12.7c0.1,3.9,0,7.8-0.2,11.7
		c-0.4,8.8-1.5,17.3-3.3,25.7c-2.4,11.4-6,22.3-10.6,32.7c-1.4,3.1-2.8,6.1-4.4,9.1c-3,5.8-14.3,20.7-18.1,26
		c6.9-0.8,16.6-2.3,27.5-11.8c-38.6,65-119.2,91.6-186.1,59.3c-4.8-2.3-9.4-4.9-13.9-7.7C72.4,262.6,85.2,233.1,94.3,221.3z
		 M25.3,105.8c-9.1,18.8-13.9,38.5-14.9,58c13.2-19.9,32.1-34.4,53.4-42.2c1.5-0.6,3.1-1.1,4.7-1.6c0.9-0.3,1.8-0.6,2.7-0.8
		c0.7-3,1.6-5.9,2.6-8.8c0,0,0,0,0-0.1c6.8-24.5,22.9-46.6,45.8-60.1c3.5-2.1,7.2-4,11.1-5.7c3.9-1.7,7.9-3.1,11.8-4.3
		c-1.3,0-2.6,0.1-3.8,0.1c-13.3,0.7-26.5,5-39.7,10.7c-2.8,1.2-5.5,2.5-8.1,3.9c-12.6,6.6-25.7,17.2-35.1,27.3
		c1.4-5,5.3-11.8,12.3-19.7c-13,6.7-24.6,16.1-34,28.4C34,91,27.9,100.5,25.3,105.8z M196.4,173.9c0,1.6-0.2,3.1-0.5,4.6
		c0,0.1-0.1,0.2-0.1,0.3c-0.7-0.2-1.6-0.4-2-0.6c-2.7-0.7-5.3-1.3-8-1.8c-0.6-0.1-1.2-0.2-1.7-0.3l0,0c-0.8-0.1-1.7-0.3-2.5-0.4
		c-1-0.1-1.9-0.3-2.9-0.3c-3-0.3-6-0.6-8.9-0.6c-1,0-2.1,0-3.1,0c-0.9,0-1.8,0-2.7,0.1c-0.8,0-1.6,0.1-2.4,0.1c-0.3,0-0.6,0-0.9,0.1
		c-2.2,0.1-4.3,0.4-6.4,0.6c-2.5,0.3-5,0.8-7.4,1.3c-3.7,0.8-7.3,1.8-10.9,3c-1.4,0.5-2.8,1-4.2,1.5c-5.5,2.1-10.9,4.8-15.9,7.9
		c-16.5,10-30,24.8-38.4,42.8c-3.5,7.5-6.2,15.7-7.7,24.3c-1.7,9.4-3.1,20.1-2.9,30.2c-12.7-9.5-23.4-21-32-33.8
		c-0.4-17.1,5.3-32.7,14.1-51c8.9-18.5,22.3-33.5,38.2-44.2c-10,3.2-19.3,8.1-27.8,14.2c-19.9,14.6-29.5,32.5-34.3,58.6
		c-0.2,1.2-0.4,2.3-0.6,3.4c0,0.2-0.1,0.5-0.1,0.7c-7.2-15.2-11.7-31.7-13.4-48.7c1.3-3.8,2.8-7.6,4.6-11.3
		c5-10.3,11.5-19.3,19.2-26.8l0.6-0.6c0,0,0.1-0.1,0.1-0.1c1.9-1.9,3.9-3.7,5.9-5.4c0.5-0.5,1.1-0.9,1.6-1.3
		c0.2-0.2,0.5-0.4,0.8-0.6c0.8-0.7,1.7-1.3,2.6-2c0.1-0.1,0.2-0.2,0.3-0.3c0.2-0.2,0.5-0.3,0.7-0.5c0,0,0,0,0,0c0,0,0,0,0.1,0
		c0.5-0.3,1-0.7,1.5-1c1.4-1,2.9-1.9,4.3-2.8c1.9-1.2,3.9-2.3,5.9-3.3c0.8-0.4,1.7-0.9,2.5-1.3c0.9-0.4,1.7-0.8,2.6-1.2
		c0.2-0.1,0.4-0.2,0.6-0.3c0.1-0.1,0.3-0.1,0.4-0.2c0.4-0.2,0.9-0.4,1.4-0.6c0.1,0,0.1,0,0.1,0c0.6-0.3,1.3-0.6,2-0.8
		c0.7-0.3,1.5-0.6,2.2-0.8c0.7-0.3,1.5-0.6,2.2-0.8c6-2.1,12.2-3.6,18.6-4.5c1.1-0.2,2.3-0.3,3.4-0.4c4-0.4,7.5-0.8,10.9-1
		c-3.9-5.8-6.4-12.7-7.2-20.1c1.7,3.9,4.2,5.5,5.9,6.6c-0.3-1.9-1.5-7.3-1.6-9.2c0-1-0.1-2,0-3c0-3.4,0.4-6.8,1.2-10.1
		c0.6-2.4,1.3-4.9,2.3-7.3c0.4-1,0.9-2.1,1.4-3.1c0,0.1,0,0.1,0,0.1c-1.2,4-1.9,8.3-1.9,12.8c0,24.3,24.8,37.7,43.9,44.3
		c7.3,2.5,14.5,7.3,20.1,11.8c6.8,5.4,7.3,9.9,7.3,9.9c2.4,2.4,10.5,7.5,10.5,7.5C193.4,163.1,196.4,165.9,196.4,173.9z M25.7,158.2
		c-0.3,0.4-0.6,0.7-0.8,1.1c-0.1,0.1-0.2,0.2-0.2,0.3c0.2-0.3,0.5-0.7,0.8-1C25.5,158.5,25.6,158.4,25.7,158.2z M26.9,156.6
		c-0.3,0.3-0.6,0.7-0.8,1c0.1-0.1,0.2-0.2,0.3-0.3C26.6,157.1,26.7,156.9,26.9,156.6z M29.6,153.3c-0.2,0.2-0.3,0.3-0.5,0.5
		c-0.2,0.3-0.5,0.6-0.7,0.9C28.9,154.2,29.2,153.8,29.6,153.3z M155.9,142.4c-11.9,0.3-25.4,5.8-25.4,5.8l-0.1,0.3l33.7,0.9
		C164.1,149.4,159.6,143.4,155.9,142.4z"/>
</g>
</svg>
